<?xml version="1.0" standalone="no"?>
<!DOCTYPE svg PUBLIC "-//W3C//DTD SVG 20010904//EN"
 "http://www.w3.org/TR/2001/REC-SVG-20010904/DTD/svg10.dtd">
<svg version="1.0" xmlns="http://www.w3.org/2000/svg"
 width="260.000000pt" height="260.000000pt" viewBox="0 0 260.000000 260.000000"
 preserveAspectRatio="xMidYMid meet">
<metadata>
Created by potrace 1.14, written by Peter Selinger 2001-2017
</metadata>
<g transform="translate(0.000000,260.000000) scale(0.100000,-0.100000)"
fill="#000000" stroke="none">
<path d="M420 2511 c-82 -17 -162 -79 -176 -137 -4 -15 -18 -30 -38 -38 -46
-19 -94 -63 -119 -110 -22 -41 -22 -42 -25 -701 -2 -441 1 -677 8 -710 14 -65
50 -115 103 -145 35 -20 59 -25 144 -28 l103 -4 2 -266 3 -265 274 266 274
266 611 3 611 3 42 22 c43 24 85 70 101 113 5 14 30 35 58 50 64 35 102 89
114 165 14 84 13 1279 -1 1344 -13 62 -71 131 -131 157 -41 18 -89 19 -983 20
-517 1 -956 -1 -975 -5z m1900 -120 c0 -5 -17 -23 -39 -40 -38 -30 -40 -31
-75 -16 -30 13 -157 15 -914 15 -747 0 -881 2 -891 14 -10 11 -8 17 6 25 23
13 1913 15 1913 2z m64 -43 c14 -20 16 -101 16 -681 0 -570 -2 -662 -15 -687
-9 -17 -20 -30 -25 -30 -6 0 -10 223 -10 615 0 664 1 656 -53 713 l-22 23 40
34 c22 19 43 34 47 35 4 0 14 -10 22 -22z m-245 -115 c0 -5 -147 -130 -326
-280 l-325 -272 -31 20 c-58 35 -162 22 -219 -28 -14 -13 -21 -11 -57 12 -73
49 -176 46 -231 -5 l-32 -30 -242 202 c-133 112 -285 239 -338 283 -53 44 -97
83 -97 87 -1 4 9 9 22 11 40 8 1877 7 1876 0z m85 -58 c14 -29 16 -110 15
-672 0 -467 -3 -647 -12 -673 -8 -24 -23 -41 -47 -52 -32 -17 -85 -18 -650
-18 l-615 0 -182 -175 c-100 -96 -184 -175 -187 -175 -3 0 -6 78 -6 174 l0
174 -150 4 c-148 3 -150 3 -177 31 l-28 27 0 680 c0 456 3 682 10 689 16 16
701 -562 696 -586 -2 -10 -4 -50 -4 -89 -1 -61 3 -80 30 -135 38 -76 117 -157
223 -228 l75 -50 45 26 c185 107 291 248 292 385 0 37 -7 80 -16 103 -16 38
-16 40 6 61 73 72 644 541 654 537 7 -2 20 -20 28 -38z"/>
</g>
</svg>
